<?xml version="1.0" encoding="UTF-8" standalone="no"?>
<!-- Created with Inkscape (http://www.inkscape.org/) -->

<svg
   xmlns:dc="http://purl.org/dc/elements/1.1/"
   xmlns:cc="http://creativecommons.org/ns#"
   xmlns:rdf="http://www.w3.org/1999/02/22-rdf-syntax-ns#"
   xmlns:svg="http://www.w3.org/2000/svg"
   xmlns="http://www.w3.org/2000/svg"
   xmlns:sodipodi="http://sodipodi.sourceforge.net/DTD/sodipodi-0.dtd"
   xmlns:inkscape="http://www.inkscape.org/namespaces/inkscape"
   width="210mm"
   height="297mm"
   viewBox="0 0 210 297"
   version="1.1"
   id="svg8"
   inkscape:version="0.92.5 (2060ec1f9f, 2020-04-08)"
   sodipodi:docname="queenbee.svg">
  <defs
     id="defs2" />
  <sodipodi:namedview
     id="base"
     pagecolor="#ffffff"
     bordercolor="#666666"
     borderopacity="1.0"
     inkscape:pageopacity="0.0"
     inkscape:pageshadow="2"
     inkscape:zoom="0.31723122"
     inkscape:cx="273.66964"
     inkscape:cy="421.57671"
     inkscape:document-units="mm"
     inkscape:current-layer="layer3"
     showgrid="false"
     inkscape:object-paths="true"
     inkscape:window-width="924"
     inkscape:window-height="1016"
     inkscape:window-x="72"
     inkscape:window-y="27"
     inkscape:window-maximized="0"
     objecttolerance="1"
     gridtolerance="1"
     guidetolerance="1" />
  <metadata
     id="metadata5">
    <rdf:RDF>
      <cc:Work
         rdf:about="">
        <dc:format>image/svg+xml</dc:format>
        <dc:type
           rdf:resource="http://purl.org/dc/dcmitype/StillImage" />
        <dc:title></dc:title>
      </cc:Work>
    </rdf:RDF>
  </metadata>
  <g
     inkscape:groupmode="layer"
     id="layer4"
     inkscape:label="Layer -1">
    <path
       style="fill:#ffcc00;stroke-width:0.11611341"
       d="m 167.84111,133.12586 c 4.08286,15.02433 -39.46982,35.8734 -54.40911,35.8734 -14.939296,0 4.79171,-17.00584 4.79171,-32.43167 0,-15.42584 68.22009,-55.729528 83.15938,-55.729528 14.9393,0 -36.94255,39.774188 -33.54198,52.287798 z"
       id="path3826"
       inkscape:connector-curvature="0"
       sodipodi:nodetypes="sssss" />
    <path
       style="fill:#ffcc00;stroke-width:0.10531697"
       d="m 62.581969,136.40232 c -3.451746,14.62019 33.368698,34.90844 45.998721,34.90844 12.63003,0 -4.05102,-16.54839 -4.05102,-31.55929 0,-15.01089 -57.674849,-54.230438 -70.304872,-54.230438 -12.630026,0 31.232091,38.704288 28.357171,50.881288 z"
       id="path3826-5"
       inkscape:connector-curvature="0"
       sodipodi:nodetypes="sssss" />
  </g>
  <g
     inkscape:groupmode="layer"
     id="layer3"
     inkscape:label="Layer 0">
    <path
       style="fill:#000000;stroke-width:0.11063268"
       d="m 132.4021,166.606 c 0,7.57627 -5.24277,33.70976 -18.37597,46.42317 -13.98774,13.54062 -32.479364,19.03022 -35.799724,21.24531 6.100637,-10.6307 17.791091,-17.47558 18.67922,-34.19935 0.421263,-7.93252 -0.524677,-20.16619 -2.665027,-25.56426 -5.768859,-14.54934 -3.702408,-18.09771 -0.787727,-24.82584 3.874112,-5.98089 13.365298,-7.54327 18.846308,-7.54327 11.10254,0 20.10292,10.95301 20.10292,24.46424 z"
       id="path3806"
       inkscape:connector-curvature="0"
       sodipodi:nodetypes="sscsscss" />
    <path
       style="fill:#000000;stroke-width:0.05964688"
       d="m 114.67074,148.47929 c 0,7.82823 -0.0193,10.21247 -5.58793,10.08553 -2.98948,-0.0681 -10.684525,3.72311 -6.46713,-7.47363 1.90732,-5.06376 -1.98292,-9.32848 -1.98291,-13.2426 0,-7.82823 2.74366,-2.18066 8.31375,-2.18066 5.57009,0 5.72422,4.98313 5.72422,12.81136 z"
       id="path3806-7"
       inkscape:connector-curvature="0"
       sodipodi:nodetypes="ssssss" />
  </g>
  <g
     inkscape:label="Layer 1"
     inkscape:groupmode="layer"
     id="layer1">
    <path
       style="stroke-width:0.24098906"
       d="m 126.83467,119.54291 c -0.52256,11.88708 -7.57085,21.98096 -18.70565,21.98096 -7.70582,0 -10.322473,-1.67099 -15.914891,-7.50516 -2.25534,-2.35283 -2.771521,-9.82111 -3.227477,-13.45682 -1.455692,-11.60742 8.00756,-22.126528 19.142368,-22.126528 11.1348,0 19.4335,4.550758 18.70565,21.107548 z"
       id="path3717"
       inkscape:connector-curvature="0"
       sodipodi:nodetypes="ssssss" />
  </g>
  <g
     inkscape:groupmode="layer"
     id="layer2"
     inkscape:label="Layer 2">
    <path
       style="fill:#e6e6e6;stroke-width:0.11063268"
       d="m 105.33798,121.06634 c 0,0 2.38924,-5.79498 5.03872,-8.37816 2.64948,-2.58318 11.2531,-4.16763 13.24979,-2.73923 1.99669,1.4284 3.2267,7.27978 2.72536,13.45891 0,0 0.18394,-5.79422 -2.22744,-7.70859 -2.10995,-1.67507 -4.35024,-2.38735 -9.25309,-2.04141 -4.89415,0.34534 -9.53334,7.40848 -9.53334,7.40848"
       id="rect3721"
       inkscape:connector-curvature="0"
       sodipodi:nodetypes="czzsssc" />
    <path
       style="fill:#e6e6e6;stroke-width:0.07121968"
       d="m 98.557242,121.02446 c 0,0 -1.568899,-3.65721 -3.308683,-5.28745 -1.739784,-1.63025 -7.38937,-2.63019 -8.700504,-1.72873 -1.311128,0.90146 -2.118817,4.59427 -1.789613,8.49391 0,0 -0.120785,-3.65673 1.462652,-4.86488 1.385508,-1.05714 2.856598,-1.50666 6.076063,-1.28833 3.213755,0.21794 6.260085,4.67548 6.260085,4.67548"
       id="rect3721-3"
       inkscape:connector-curvature="0"
       sodipodi:nodetypes="czzsssc" />
    <path
       style="fill:#e6e6e6;stroke-width:0.06066647"
       d="m 105.48648,128.50826 c -0.94217,-0.78571 -1.5754,-2.09761 -3.34458,-2.09761 -1.76918,0 -2.01108,0.99662 -3.062193,2.09761 2e-6,-1.4259 1.434203,-2.58183 3.203393,-2.58183 1.76918,0 3.20338,1.15593 3.20338,2.58183 z"
       id="path3782"
       inkscape:connector-curvature="0"
       sodipodi:nodetypes="cscsc" />
    <path
       style="fill:#e6e6e6;stroke-width:0.01913663"
       d="m 107.02954,128.35079 c -0.25313,-0.29101 -0.42325,-0.7769 -0.89855,-0.7769 -0.4753,0 -0.54029,0.36912 -0.82268,0.7769 0,-0.52812 0.38531,-0.95624 0.86062,-0.95624 0.4753,0 0.86061,0.42812 0.86061,0.95624 z"
       id="path3782-6"
       inkscape:connector-curvature="0"
       sodipodi:nodetypes="cscsc" />
    <path
       style="fill:#e6e6e6;stroke-width:0.11063268"
       d="m 107.30333,134.55645 c 0,0.59413 -3.66417,-1.45826 -4.35087,-0.59764 -0.92575,-0.95624 -4.350866,1.28739 -4.350869,0.69327 -7e-6,-0.59413 1.369206,-3.32293 4.159629,-2.31888 2.47638,-1.40539 4.54212,1.62912 4.54211,2.22325 z"
       id="path3800"
       inkscape:connector-curvature="0"
       sodipodi:nodetypes="ccccc" />
  </g>
  <g
     inkscape:groupmode="layer"
     id="layer5"
     inkscape:label="Layer 3">
    <path
       sodipodi:type="star"
       style="fill:#ffcc00;stroke-width:0.26458332"
       id="path3847"
       sodipodi:sides="5"
       sodipodi:cx="128.17517"
       sodipodi:cy="130.25885"
       sodipodi:r1="10.14543"
       sodipodi:r2="5.0727148"
       sodipodi:arg1="0.46364761"
       sodipodi:arg2="1.0919661"
       inkscape:flatsided="false"
       inkscape:rounded="0"
       inkscape:randomized="0"
       d="m 137.24952,134.79602 -6.73714,-0.035 -3.84819,5.53007 -2.04864,-6.4182 -6.44856,-1.95096 5.47101,-3.93171 -0.13725,-6.73583 5.42991,3.98828 6.36375,-2.21201 -2.11515,6.39659 z"
       inkscape:transform-center-x="8.4605444"
       inkscape:transform-center-y="-20.2117"
       transform="matrix(0.34357486,0,0,0.35585266,72.50623,73.546782)" />
    <path
       sodipodi:type="star"
       style="fill:#ffcc00;stroke-width:0.26458332"
       id="path3847-3"
       sodipodi:sides="5"
       sodipodi:cx="128.17517"
       sodipodi:cy="130.25885"
       sodipodi:r1="10.14543"
       sodipodi:r2="5.0727148"
       sodipodi:arg1="0.46364761"
       sodipodi:arg2="1.0919661"
       inkscape:flatsided="false"
       inkscape:rounded="0"
       inkscape:randomized="0"
       d="m 137.24952,134.79602 -6.73714,-0.035 -3.84819,5.53007 -2.04864,-6.4182 -6.44856,-1.95096 5.47101,-3.93171 -0.13725,-6.73583 5.42991,3.98828 6.36375,-2.21201 -2.11515,6.39659 z"
       inkscape:transform-center-x="4.4898501"
       inkscape:transform-center-y="-15.917865"
       transform="matrix(0.18232863,0,0,0.28025422,68.684632,85.077592)" />
    <path
       sodipodi:type="star"
       style="fill:#808080;stroke-width:0.11063268"
       id="path3864"
       sodipodi:sides="5"
       sodipodi:cx="99.504276"
       sodipodi:cy="95.797363"
       sodipodi:r1="2.8654501"
       sodipodi:r2="1.4327251"
       sodipodi:arg1="0.42662749"
       sodipodi:arg2="1.054946"
       inkscape:flatsided="false"
       inkscape:rounded="0"
       inkscape:randomized="0"
       d="m 102.11288,96.983095 -1.90188,0.06056 -1.028321,1.601057 -0.645308,-1.790085 -1.840464,-0.483236 1.503061,-1.166892 -0.10915,-1.899713 1.574251,1.068906 1.773011,-0.690851 -0.53012,1.827512 z"
       inkscape:transform-center-x="0.099378366"
       inkscape:transform-center-y="0.17737565" />
    <path
       sodipodi:type="star"
       style="fill:#808080;stroke-width:0.11063268"
       id="path3866"
       sodipodi:sides="5"
       sodipodi:cx="110.65015"
       sodipodi:cy="96.034515"
       sodipodi:r1="4.3598824"
       sodipodi:r2="2.1799412"
       sodipodi:arg1="0.39060704"
       sodipodi:arg2="1.0189256"
       inkscape:flatsided="false"
       inkscape:rounded="0"
       inkscape:randomized="0"
       d="m 114.68163,97.69454 -2.88858,0.196294 -1.47588,2.490826 -1.07931,-2.686546 -2.82499,-0.633937 2.22153,-1.856674 -0.27006,-2.882625 2.4523,1.539063 2.65808,-1.147623 -0.70593,2.807867 z"
       inkscape:transform-center-x="0.10289677"
       inkscape:transform-center-y="0.31725378" />
    <path
       sodipodi:type="star"
       style="fill:#808080;stroke-width:0.11063268"
       id="path3868"
       sodipodi:sides="5"
       sodipodi:cx="120.37315"
       sodipodi:cy="104.57178"
       sodipodi:r1="3.6198821"
       sodipodi:r2="1.8099411"
       sodipodi:arg1="1.0191413"
       sodipodi:arg2="1.6474599"
       inkscape:flatsided="false"
       inkscape:rounded="0"
       inkscape:randomized="0"
       d="m 122.27032,107.65468 -2.03579,-1.27828 -2.20713,0.95236 0.58662,-2.33116 -1.58779,-1.80481 2.39834,-0.16246 1.22582,-2.0678 0.89564,2.23075 2.3454,0.52685 -1.84481,1.54114 z"
       inkscape:transform-center-x="-0.085670972"
       inkscape:transform-center-y="-0.26317807" />
    <path
       sodipodi:type="star"
       style="fill:#808080;stroke-width:0.11063268"
       id="path3870"
       sodipodi:sides="5"
       sodipodi:cx="94.5242"
       sodipodi:cy="98.880279"
       sodipodi:r1="3.3704832"
       sodipodi:r2="1.6852416"
       sodipodi:arg1="0.68572951"
       sodipodi:arg2="1.314048"
       inkscape:flatsided="false"
       inkscape:rounded="0"
       inkscape:randomized="0"
       d="m 97.13281,101.0146 -2.180665,-0.50432 -1.651696,1.51048 -0.194229,-2.229783 -1.94695,-1.104094 2.060625,-0.873762 0.448416,-2.192843 1.467765,1.689764 2.224086,-0.251158 -1.153497,1.918094 z"
       inkscape:transform-center-x="0.26448536"
       inkscape:transform-center-y="-0.059754389" />
    <path
       sodipodi:type="star"
       style="fill:#808080;stroke-width:0.11063268"
       id="path3872"
       sodipodi:sides="5"
       sodipodi:cx="98.792838"
       sodipodi:cy="105.28323"
       sodipodi:r1="3.8312161"
       sodipodi:r2="1.9156082"
       sodipodi:arg1="1.1902899"
       sodipodi:arg2="1.8186085"
       inkscape:flatsided="false"
       inkscape:rounded="0"
       inkscape:randomized="0"
       d="m 100.21572,108.84043 -1.892748,-1.70011 -2.473533,0.59538 1.032007,-2.32546 -1.330606,-2.16849 2.53056,0.26289 1.651173,-1.93558 0.531967,2.48794 2.35109,0.97223 -2.20179,1.27475 z"
       inkscape:transform-center-x="-0.29039353"
       inkscape:transform-center-y="-0.078481376" />
    <path
       sodipodi:type="star"
       style="fill:#b3b3b3;stroke-width:0.11063268"
       id="path3874"
       sodipodi:sides="5"
       sodipodi:cx="103.53576"
       sodipodi:cy="101.01459"
       sodipodi:r1="4.883142"
       sodipodi:r2="2.441571"
       sodipodi:arg1="1.0636978"
       sodipodi:arg2="1.6920164"
       inkscape:flatsided="false"
       inkscape:rounded="0"
       inkscape:randomized="0"
       d="m 105.90722,105.28322 -2.6667,-1.84498 -3.03165,1.15082 0.93062,-3.10632 -2.031325,-2.527639 3.241865,-0.07483 1.77621,-2.712991 1.07296,3.06007 3.12909,0.850921 -2.57873,1.96606 z"
       inkscape:transform-center-x="-0.18246956"
       inkscape:transform-center-y="-0.28933961" />
    <path
       sodipodi:type="star"
       style="fill:#cccccc;stroke-width:0.11063268"
       id="path3876"
       sodipodi:sides="5"
       sodipodi:cx="91.91559"
       sodipodi:cy="103.6232"
       sodipodi:r1="2.5463824"
       sodipodi:r2="1.2731913"
       sodipodi:arg1="0.45164838"
       sodipodi:arg2="1.0799669"
       inkscape:flatsided="false"
       inkscape:rounded="0"
       inkscape:randomized="0"
       d="m 94.206642,104.73457 -1.690925,0.0115 -0.949127,1.39947 -0.533475,-1.60461 -1.624273,-0.47021 1.361219,-1.00321 -0.05473,-1.69008 1.374755,0.98458 1.590448,-0.57431 -0.511573,1.61172 z"
       inkscape:transform-center-x="0.10784653"
       inkscape:transform-center-y="0.13829749" />
    <path
       sodipodi:type="star"
       style="fill:#cccccc;stroke-width:0.11063268"
       id="path3878"
       sodipodi:sides="5"
       sodipodi:cx="91.441298"
       sodipodi:cy="109.55185"
       sodipodi:r1="3.3704832"
       sodipodi:r2="1.6852416"
       sodipodi:arg1="0.68572951"
       sodipodi:arg2="1.314048"
       inkscape:flatsided="false"
       inkscape:rounded="0"
       inkscape:randomized="0"
       d="m 94.049909,111.68617 -2.180665,-0.50432 -1.651696,1.51048 -0.194229,-2.22978 -1.94695,-1.1041 2.060625,-0.87376 0.448416,-2.19284 1.467765,1.68976 2.224086,-0.25116 -1.153497,1.9181 z"
       inkscape:transform-center-x="0.26448513"
       inkscape:transform-center-y="-0.059770865" />
    <path
       sodipodi:type="star"
       style="fill:#cccccc;stroke-width:0.11063268"
       id="path3882"
       sodipodi:sides="5"
       sodipodi:cx="92.936869"
       sodipodi:cy="105.56415"
       sodipodi:r1="3.2242668"
       sodipodi:r2="1.6121334"
       sodipodi:arg1="0.39852245"
       sodipodi:arg2="1.026841"
       inkscape:flatsided="false"
       inkscape:rounded="0"
       inkscape:randomized="0"
       d="m 95.908465,106.81535 -2.13728,0.12825 -1.106005,1.83335 -0.782431,-1.99304 -2.085392,-0.48534 1.653711,-1.36002 -0.182838,-2.13331 1.80448,1.15251 1.972392,-0.83312 -0.53848,2.07231 z"
       inkscape:transform-center-x="0.083956269"
       inkscape:transform-center-y="0.226929" />
    <path
       sodipodi:type="star"
       style="fill:#cccccc;stroke-width:0.11063268"
       id="path3884"
       sodipodi:sides="5"
       sodipodi:cx="109.80203"
       sodipodi:cy="99.099396"
       sodipodi:r1="3.0879889"
       sodipodi:r2="1.5439945"
       sodipodi:arg1="0.61148902"
       sodipodi:arg2="1.2398075"
       inkscape:flatsided="false"
       inkscape:rounded="0"
       inkscape:randomized="0"
       d="m 112.33046,100.87217 -2.02666,-0.31259 -1.40645,1.49231 -0.32899,-2.02406 -1.85388,-0.876467 1.82334,-0.938355 0.26068,-2.03399 1.45587,1.44413 2.015,-0.380612 -0.92356,1.830876 z"
       inkscape:transform-center-x="0.27956288"
       inkscape:transform-center-y="0.016058273" />
    <path
       sodipodi:type="star"
       style="fill:#cccccc;stroke-width:0.11063268"
       id="path3886"
       sodipodi:sides="5"
       sodipodi:cx="112.95606"
       sodipodi:cy="102.90536"
       sodipodi:r1="2.8753774"
       sodipodi:r2="1.4376887"
       sodipodi:arg1="0.39060704"
       sodipodi:arg2="1.0189256"
       inkscape:flatsided="false"
       inkscape:rounded="0"
       inkscape:randomized="0"
       d="m 115.61486,104.00016 -1.90504,0.12945 -0.97336,1.64273 -0.71181,-1.7718 -1.86311,-0.41809 1.46512,-1.22449 -0.1781,-1.90112 1.6173,1.01503 1.75303,-0.75687 -0.46557,1.85181 z"
       inkscape:transform-center-x="0.067861395"
       inkscape:transform-center-y="0.20922551" />
    <path
       sodipodi:type="star"
       style="fill:#cccccc;stroke-width:0.11063268"
       id="path3888"
       sodipodi:sides="5"
       sodipodi:cx="116.24045"
       sodipodi:cy="97.118561"
       sodipodi:r1="1.3362814"
       sodipodi:r2="0.66814071"
       sodipodi:arg1="1.2120257"
       sodipodi:arg2="1.8403442"
       inkscape:flatsided="false"
       inkscape:rounded="0"
       inkscape:randomized="0"
       d="m 116.70965,98.36976 -0.64712,-0.607184 -0.86705,0.188862 0.37749,-0.80308 -0.44755,-0.76625 0.88043,0.110853 0.59044,-0.66243 0.16664,0.871591 0.81247,0.356845 -0.77744,0.42782 z"
       inkscape:transform-center-x="-0.10996153"
       inkscape:transform-center-y="-0.018429487" />
    <path
       sodipodi:type="star"
       style="fill:#cccccc;stroke-width:0.11063268"
       id="path3890"
       sodipodi:sides="5"
       sodipodi:cx="122.96565"
       sodipodi:cy="100.24658"
       sodipodi:r1="3.6005967"
       sodipodi:r2="1.8002983"
       sodipodi:arg1="0.97074611"
       sodipodi:arg2="1.5990646"
       inkscape:flatsided="false"
       inkscape:rounded="0"
       inkscape:randomized="0"
       d="m 124.99885,103.21818 -2.08408,-1.17202 -2.14698,1.05238 0.47064,-2.34425 -1.66433,-1.716697 2.37495,-0.27681 1.11837,-2.113359 0.99716,2.173177 2.35552,0.410568 -1.75867,1.619911 z"
       inkscape:transform-center-x="-0.031447256"
       inkscape:transform-center-y="-0.31376848" />
    <path
       sodipodi:type="star"
       style="fill:#cccccc;stroke-width:0.11063268"
       id="path3892"
       sodipodi:sides="5"
       sodipodi:cx="115.35486"
       sodipodi:cy="96.774933"
       sodipodi:r1="2.2022681"
       sodipodi:r2="1.1011339"
       sodipodi:arg1="0.71175481"
       sodipodi:arg2="1.3400733"
       inkscape:flatsided="false"
       inkscape:rounded="0"
       inkscape:randomized="0"
       d="m 117.02245,98.213374 -1.41578,-0.366486 -1.10454,0.958524 -0.0889,-1.459742 -1.25293,-0.754273 1.36081,-0.535685 0.33018,-1.42469 0.92998,1.128671 1.45699,-0.126234 -0.78605,1.233242 z"
       inkscape:transform-center-x="0.15562698"
       inkscape:transform-center-y="-0.056714783" />
    <path
       sodipodi:type="star"
       style="fill:#cccccc;stroke-width:0.11063268"
       id="path3894"
       sodipodi:sides="5"
       sodipodi:cx="114.54206"
       sodipodi:cy="101.8161"
       sodipodi:r1="3.4103022"
       sodipodi:r2="1.7051511"
       sodipodi:arg1="0.75638032"
       sodipodi:arg2="1.3846989"
       inkscape:flatsided="false"
       inkscape:rounded="0"
       inkscape:randomized="0"
       d="m 117.02246,104.15657 -2.1649,-0.66476 -1.77493,1.40653 -0.0368,-2.26436 -1.88618,-1.25342 2.14218,-0.73469 0.60921,-2.181188 1.36071,1.810298 2.26268,-0.0946 -1.30121,1.85352 z"
       inkscape:transform-center-x="0.19498789"
       inkscape:transform-center-y="-0.13458916" />
    <path
       sodipodi:type="star"
       style="fill:#666666;stroke-width:0.11063268"
       id="path3896"
       sodipodi:sides="5"
       sodipodi:cx="118.74285"
       sodipodi:cy="98.682586"
       sodipodi:r1="1.5403605"
       sodipodi:r2="0.77018028"
       sodipodi:arg1="1.152572"
       sodipodi:arg2="1.7808905"
       inkscape:flatsided="false"
       inkscape:rounded="0"
       inkscape:randomized="0"
       d="m 119.36845,100.09019 -0.78622,-0.654358 -0.98476,0.276707 0.37937,-0.949948 -0.56748,-0.851058 1.02069,0.06725 0.63405,-0.80269 0.25144,0.991513 0.95934,0.354968 -0.86529,0.545535 z"
       inkscape:transform-center-x="-0.099269832"
       inkscape:transform-center-y="-0.049433067" />
    <path
       sodipodi:type="star"
       style="fill:#999999;stroke-width:0.11063268"
       id="path3898"
       sodipodi:sides="5"
       sodipodi:cx="102.00806"
       sodipodi:cy="98.213379"
       sodipodi:r1="2.9655962"
       sodipodi:r2="1.4827981"
       sodipodi:arg1="0.10845868"
       sodipodi:arg2="0.73677721"
       inkscape:flatsided="false"
       inkscape:rounded="0"
       inkscape:randomized="0"
       d="m 104.95623,98.534393 -1.84996,0.675285 -0.49248,1.906772 -1.2139,-1.550732 -1.965641,0.120846 1.099721,-1.633692 -0.722346,-1.83209 1.893566,0.541059 1.5192,-1.25314 0.0706,1.968085 z"
       inkscape:transform-center-x="-0.18718075"
       inkscape:transform-center-y="0.099204255" />
    <path
       sodipodi:type="star"
       style="fill:#f9f9f9;stroke-width:0.11063268"
       id="path3960"
       sodipodi:sides="5"
       sodipodi:cx="105.44886"
       sodipodi:cy="96.492981"
       sodipodi:r1="2.8547177"
       sodipodi:r2="1.4273587"
       sodipodi:arg1="0.34130837"
       sodipodi:arg2="0.96962691"
       inkscape:flatsided="false"
       inkscape:rounded="0"
       inkscape:randomized="0"
       d="m 108.13891,97.448513 -1.88273,0.221575 -0.88481,1.676559 -0.79253,-1.722109 -1.86792,-0.323427 1.39291,-1.285896 -0.26962,-1.876448 1.6534,0.927381 1.70129,-0.836282 -0.37107,1.85905 z"
       inkscape:transform-center-x="0.023947343"
       inkscape:transform-center-y="0.24973328" />
    <path
       sodipodi:type="star"
       style="fill:#f9f9f9;stroke-width:0.11063268"
       id="path3962"
       sodipodi:sides="5"
       sodipodi:cx="96.377665"
       sodipodi:cy="99.933777"
       sodipodi:r1="3.5805292"
       sodipodi:r2="1.7902647"
       sodipodi:arg1="-0.28160898"
       sodipodi:arg2="0.34670955"
       inkscape:flatsided="false"
       inkscape:rounded="0"
       inkscape:randomized="0"
       d="m 99.817153,98.938742 -1.755754,1.603378 0.325459,2.35532 -2.067459,-1.17435 -2.139476,1.03737 0.477994,-2.32917 -1.647727,-1.714195 2.362875,-0.265152 1.121124,-2.096799 0.982343,2.165292 z"
       inkscape:transform-center-x="-0.036007762"
       inkscape:transform-center-y="-0.30747921" />
    <path
       sodipodi:type="star"
       style="fill:#f9f9f9;stroke-width:0.11063268"
       id="path3964"
       sodipodi:sides="5"
       sodipodi:cx="117.49165"
       sodipodi:cy="100.87216"
       sodipodi:r1="2.7833996"
       sodipodi:r2="1.3916998"
       sodipodi:arg1="0.41471387"
       sodipodi:arg2="1.0430324"
       inkscape:flatsided="false"
       inkscape:rounded="0"
       inkscape:randomized="0"
       d="m 120.03911,101.99367 -1.84659,0.0808 -0.98028,1.567 -0.6475,-1.73123 -1.79323,-0.44807 1.44642,-1.15079 -0.128,-1.843925 1.54143,1.020007 1.71412,-0.691539 -0.49376,1.781187 z"
       inkscape:transform-center-x="0.086343949"
       inkscape:transform-center-y="0.18232125" />
  </g>
</svg>
